<?xml version="1.0" encoding="UTF-8"?>
<svg viewBox="0 0 138 17" version="1.1" xmlns="http://www.w3.org/2000/svg" xmlns:xlink="http://www.w3.org/1999/xlink">
    <defs>
        <polygon id="path-1" points="0.00016507177 0.00930188679 17.2557775 0.00930188679 17.2557775 16.6789887 0.00016507177 16.6789887"></polygon>
        <polygon id="path-3" points="0.0461870813 0.299103774 24.2113737 0.299103774 24.2113737 16.6792453 0.0461870813 16.6792453"></polygon>
        <polygon id="path-5" points="0.00135358852 0.0100075472 24.1668373 0.0100075472 24.1668373 16.3887057 0.00135358852 16.3887057"></polygon>
    </defs>
    <g id="Page-1" stroke="none" stroke-width="1" fill="none" fill-rule="evenodd">
        <g id="Онлайн-образование-ТП+Курсон-1440" transform="translate(-493.000000, -48.000000)">
            <g id="courson" transform="translate(493.000000, 48.000000)">
                <rect id="Background" x="0" y="0" width="138" height="17"></rect>
                <g id="Group-18">
                    <g id="Group-3" transform="translate(0.000000, 0.311517)">
                        <mask id="mask-2" fill="white">
                            <use xlink:href="#path-1"></use>
                        </mask>
                        <g id="Clip-2"></g>
                        <path d="M12.0659211,4.02393208 C11.5370311,3.92770566 10.9751268,3.86387547 10.0153995,3.86387547 C6.94176316,3.86387547 5.7182512,6.17619623 5.7182512,8.48851698 C5.7182512,10.7373283 6.8093756,12.7282528 10.048744,12.7282528 C12.7928971,12.7282528 13.818323,12.3433472 15.6357632,11.7008755 C16.9583182,12.1820075 17.2557775,13.435517 17.2557775,14.6229509 C15.0405144,15.9717245 12.0659211,16.6789887 9.28974402,16.6789887 C4.79219856,16.6789887 0.00016507177,14.9129132 0.00016507177,8.48851698 C0.00016507177,3.18900755 4.36268182,0.00904528302 10.2148062,0.00904528302 C12.2963612,0.00904528302 14.5116244,0.555611321 16.5274809,1.32670566 L16.5274809,6.52998868 C16.5274809,6.97968679 15.8675239,7.33219623 14.8100742,7.33219623 C13.8836914,7.33219623 12.594811,7.07623396 12.4620933,6.30353585 L12.0659211,4.02393208 Z" id="Fill-1" fill="#FFFFFF" mask="url(#mask-2)"></path>
                    </g>
                    <path d="M30.6438904,8.67208491 C30.6438904,6.35976415 29.4203785,4.17606604 27.1394167,4.17606604 C24.8587852,4.17606604 23.6352732,6.35976415 23.6352732,8.67208491 C23.6352732,10.9840849 24.8587852,13.1357075 27.1394167,13.1357075 C29.4203785,13.1357075 30.6438904,10.9840849 30.6438904,8.67208491 M27.1394167,0.321556604 C32.3292732,0.321556604 36.3636273,3.17980189 36.3636273,8.67208491 C36.3636273,14.1643679 32.3292732,16.990217 27.1394167,16.990217 C21.9498904,16.990217 17.9165268,14.1643679 17.9165268,8.67208491 C17.9165268,3.17980189 21.9498904,0.321556604 27.1394167,0.321556604" id="Fill-4" fill="#FFFFFF"></path>
                    <g id="Group-8" transform="translate(35.985646, 0.311517)">
                        <mask id="mask-4" fill="white">
                            <use xlink:href="#path-3"></use>
                        </mask>
                        <g id="Clip-7"></g>
                        <path d="M3.68172775,4.31399057 L1.13698134,3.92780189 C0.475703828,3.83285849 0.0461870813,2.96521698 0.0461870813,2.00166981 C0.0461870813,1.10163208 0.30997177,0.299103774 0.905550718,0.299103774 L6.98811531,0.299103774 C8.93827321,0.299103774 9.30110096,1.19785849 9.30110096,3.06048113 L9.30110096,9.90217925 C9.30110096,11.2182358 9.7306177,12.5031792 11.6824263,12.5031792 C12.9713067,12.5031792 14.9538187,11.9572547 14.9538187,9.29242453 L14.9538187,4.21776415 L12.8402397,3.8639717 C12.1776416,3.76774528 11.8805124,2.83659434 11.8805124,1.96895283 C11.8805124,1.10163208 12.1109526,0.299103774 12.6741775,0.299103774 L22.5570244,0.299103774 C23.1526033,0.299103774 23.3843641,1.06923585 23.3843641,1.90416038 C23.3843641,2.80387736 23.0869048,3.73534906 22.4246368,3.8639717 L20.5745124,4.21776415 L20.5745124,12.3745566 L23.1205794,12.7607453 C23.7818569,12.8569717 24.2113737,13.7246132 24.2113737,14.6881604 C24.2113737,15.5869151 23.9462684,16.3891226 23.3506895,16.3891226 L17.5989287,16.3891226 C15.9792445,16.3891226 15.1198809,15.9079906 15.1198809,14.3670849 C13.8306703,15.9079906 11.6824263,16.6794057 9.76429234,16.6794057 C6.88775167,16.6794057 3.68172775,15.9079906 3.68172775,10.6084811 L3.68172775,4.31399057 Z" id="Fill-6" fill="#FFFFFF" mask="url(#mask-4)"></path>
                    </g>
                    <path d="M64.1632981,12.783166 L64.1632981,4.62509057 L61.6172311,4.23890189 C60.9549632,4.14363774 60.5251163,3.27631698 60.5251163,2.31276981 C60.5251163,1.41401509 60.7915421,0.610203774 61.3844799,0.610203774 L67.1375612,0.610203774 C68.7572455,0.610203774 69.6166091,1.22027925 69.6166091,2.76278868 C71.0061833,1.22027925 72.725901,0.321524528 75.0392167,0.321524528 C76.2290541,0.321524528 76.4941593,0.352958491 77.5502885,0.577807547 C77.7830397,1.06022264 77.8824129,1.63758113 77.8824129,2.24893962 C77.8824129,3.40397736 77.452566,4.72131698 76.757944,5.26627925 L73.8157048,4.62509057 C71.5350732,4.62509057 69.7826713,4.88137358 69.7826713,7.83744906 L69.7826713,12.783166 L71.8975708,13.1356755 C72.5601689,13.2328642 72.8563077,14.1643358 72.8563077,15.0316566 C72.8563077,15.8980151 72.6255373,16.7002226 72.063633,16.7002226 L62.1794656,16.7002226 C61.5838866,16.7002226 61.3534464,15.9304113 61.3534464,15.0954868 C61.3534464,14.1967321 61.6509057,13.2642981 62.3121833,13.1356755 L64.1632981,12.783166 Z" id="Fill-9" fill="#FFFFFF"></path>
                    <path d="M78.2126225,11.5302019 C78.2126225,11.0805038 78.8058904,10.7263906 79.8646608,10.7263906 C80.789723,10.7263906 81.9805507,11.0163528 82.178967,11.7550509 L82.6084837,13.3613906 C83.5335459,13.6500698 84.5923163,13.8752396 85.8478522,13.8752396 C87.8650292,13.8752396 88.3602445,13.4887302 88.3602445,13.0075981 C88.3602445,12.3340132 87.8316847,11.9163906 84.2615124,10.5990509 C80.0303928,9.05782453 78.4764072,7.57946604 78.4764072,5.17059811 C78.4764072,1.92744717 81.9151823,0.321107547 86.7085364,0.321107547 C89.3523258,0.321107547 91.6666321,0.706013208 93.7495077,1.38088113 L93.7495077,5.62061698 C93.7495077,6.07063585 93.0882301,6.4244283 92.02979,6.4244283 C91.1043976,6.4244283 89.9812493,6.13446604 89.7821727,5.39576792 L89.3523258,3.75703208 C88.7900914,3.59729623 87.9640722,3.4359566 87.0713641,3.4359566 C85.0555077,3.4359566 84.4929431,4.17561698 84.4929431,4.65706981 C84.4929431,5.52439057 85.1542206,5.74827736 87.8987038,6.68071132 C92.9558426,8.41535283 94.3774407,9.95657925 94.3774407,12.2689 C94.3774407,15.8010509 90.6748809,16.9897679 86.0472589,16.9897679 C82.5084502,16.9897679 79.8976751,16.4448057 78.2126225,15.7061075 L78.2126225,11.5302019 Z" id="Fill-11" fill="#FFFFFF"></path>
                    <g id="Group-15" transform="translate(113.569378, 0.311517)">
                        <mask id="mask-6" fill="white">
                            <use xlink:href="#path-5"></use>
                        </mask>
                        <g id="Clip-14"></g>
                        <path d="M3.63854498,12.4716491 L3.63854498,4.31357358 L1.09247799,3.92738491 C0.429879904,3.83212075 0.00135358852,2.9648 0.00135358852,2.00125283 C0.00135358852,1.10249811 0.266458852,0.298686792 0.859726794,0.298686792 L6.61280813,0.298686792 C8.23249234,0.298686792 9.09218612,0.74870566 9.09218612,2.28993208 C10.3810665,0.74870566 12.5306311,0.0100075472 14.4461239,0.0100075472 C17.3226646,0.0100075472 20.5313297,0.780139623 20.5313297,6.08093208 L20.5313297,12.3754226 L23.0747555,12.7603283 C23.7373536,12.8565547 24.1668703,13.7238755 24.1668703,14.6877434 C24.1668703,15.5864981 23.9020952,16.3887057 23.3075067,16.3887057 L17.2249421,16.3887057 C15.2747842,16.3887057 14.9096455,15.4899509 14.9096455,13.6266868 L14.9096455,6.78563019 C14.9096455,5.46957358 14.4797986,4.18495094 12.5306311,4.18495094 C11.2401,4.18495094 9.25791818,4.69976226 9.25791818,7.36459245 L9.25791818,12.4716491 L11.3728177,12.8241585 C12.0354158,12.9213472 12.3312244,13.8528189 12.3312244,14.7201396 C12.3312244,15.5864981 12.0997938,16.3887057 11.5388799,16.3887057 L1.65471244,16.3887057 C1.05913349,16.3887057 0.828693301,15.6188943 0.828693301,14.7839698 C0.828693301,13.8852151 1.12615263,12.9527811 1.78743014,12.8241585 L3.63854498,12.4716491 Z" id="Fill-13" fill="#FFFFFF" mask="url(#mask-6)"></path>
                    </g>
                    <path d="M101.6612,13.3087547 L101.6612,4.00269811 L109.956386,8.65620755 L101.6612,13.3087547 Z M104.724601,0.321396226 C99.5337545,0.321396226 95.5020416,3.17996226 95.5020416,8.67192453 C95.5020416,14.1638868 99.5337545,16.9900566 104.724601,16.9900566 C109.914458,16.9900566 113.948812,14.1638868 113.948812,8.67192453 C113.948812,3.17996226 109.914458,0.321396226 104.724601,0.321396226 Z" id="Fill-16" fill="#76BC21"></path>
                </g>
            </g>
        </g>
    </g>
</svg>