<svg viewBox="0 0 67 62" version="1.1" xmlns="http://www.w3.org/2000/svg" xmlns:xlink="http://www.w3.org/1999/xlink">
    <g id="Page-1" stroke="none" stroke-width="1" fill="none" fill-rule="evenodd">
        <g id="Онлайн-образование-ТП+Курсон-1440" transform="translate(-687.000000, -1851.000000)" stroke-width="3">
            <g id="Group-9" transform="translate(570.000000, 1806.000000)">
                <g id="finance" transform="translate(117.000000, 47.000000)">
                    <polyline id="Stroke-1" stroke="#B20838" points="0.000279166667 49.1668071 8.37527917 49.1668071 13.9586125 42.1429976 19.5419458 42.1429976 25.1252792 47.7620452 33.5002792 47.7620452 44.6669458 36.52395 54.4377792 36.52395 58.6252792 29.5001405 67.0002792 29.5001405"></polyline>
                    <path d="M67.0002792,57.5953786 L0.000279166667,57.5953786" id="Stroke-4" stroke="#FFFFFF"></path>
                    <polyline id="Stroke-8" stroke="#FFFFFF" points="39.0836125 36.52395 39.0836125 15.4525214 27.9169458 15.4525214 27.9169458 28.0953786"></polyline>
                    <path d="M39.0836125,57.5953786 L39.0836125,47.7620452" id="Stroke-9" stroke="#FFFFFF"></path>
                    <path d="M50.2502792,40.7382357 L50.2502792,57.5953786" id="Stroke-11" stroke="#FFFFFF"></path>
                    <polyline id="Stroke-14" stroke="#FFFFFF" points="39.0836125 21.071569 50.2502792 21.071569 50.2502792 32.3096643"></polyline>
                    <path d="M27.9169458,51.976331 L27.9169458,57.5953786" id="Stroke-15" stroke="#FFFFFF"></path>
                    <polyline id="Stroke-17" stroke="#FFFFFF" points="16.7502792 28.0953786 27.9169458 28.0953786 27.9169458 43.5477595"></polyline>
                    <path d="M5.5836125,57.5953786 L5.5836125,53.3810929" id="Stroke-18" stroke="#FFFFFF"></path>
                    <path d="M16.7502792,46.3572833 L16.7502792,57.5953786" id="Stroke-20" stroke="#FFFFFF"></path>
                    <polyline id="Stroke-23" stroke="#FFFFFF" points="5.5836125 44.9525214 5.5836125 22.476331 16.7502792 22.476331 16.7502792 37.9287119"></polyline>
                    <path d="M61.4169458,33.7144262 L61.4169458,57.5953786" id="Stroke-24" stroke="#FFFFFF"></path>
                    <polyline id="Stroke-26" stroke="#FFFFFF" points="61.4169458 25.2858548 61.4169458 0.00014047619 50.2502792 0.00014047619 50.2502792 21.071569"></polyline>
                </g>
            </g>
        </g>
    </g>
</svg>