<svg width="48" height="44" viewBox="0 0 48 44" fill="none" xmlns="http://www.w3.org/2000/svg">
<rect width="46" height="42" fill="black" fill-opacity="0" transform="translate(1 1)"/>
<path fill-rule="evenodd" clip-rule="evenodd" d="M35.9999 26C35.9999 26 25.9999 23.043 25.9999 23V14C25.9999 12.347 24.6859 11.007 23.0349 11C21.3829 11.007 19.9999 12.347 19.9999 14V31H18.9999C18.8129 30.792 16.6789 26.379 13.9999 26C11.5499 25.652 10.4179 28.128 11.9999 31C13.5819 33.871 18.9759 43 19.0129 43H35.9999C36.2729 43 37.9999 39.557 37.9999 38V29C37.9999 27.588 37.2899 26.574 35.9999 26Z" stroke="white" stroke-width="2"/>
<path d="M10.9999 35H3.99991C2.34291 35 0.999908 33.656 0.999908 32V4C0.999908 2.343 2.34291 1 3.99991 1H43.9999C45.6569 1 46.9999 2.343 46.9999 4V32C46.9999 33.656 45.6569 35 43.9999 35H40.9999" stroke="#B20838" stroke-width="2"/>
</svg>
