<svg viewBox="0 0 205 31" version="1.1" xmlns="http://www.w3.org/2000/svg" xmlns:xlink="http://www.w3.org/1999/xlink">
    <g id="Page-1" stroke="none" stroke-width="1" fill="none" fill-rule="evenodd">
        <g id="Онлайн-образование-ТП+Курсон-1440" transform="translate(-211.000000, -40.000000)" fill="#FFFFFF">
            <g id="logos/red-copy" transform="translate(211.000000, 40.000000)">
                <path d="M37.4614396,25.046322 L37.4614396,8.63371034 L32.9766303,8.63371034 L32.9766303,5.10612549 L46.0071982,5.10612549 L46.0071982,8.63371034 L41.5220101,8.63371034 L41.5220101,25.046322 L37.4614396,25.046322 Z M44.0365715,17.8114846 C44.0365715,13.6262145 46.521777,10.2477299 50.5823476,10.2477299 C54.6126154,10.2477299 56.8853228,13.4767405 56.8853228,17.9609586 L56.8853228,18.977755 L47.7035849,18.977755 C47.8550987,20.9504372 49.0369066,22.5049662 51.2490085,22.5049662 C52.2793025,22.5049662 53.6126242,21.9971285 54.4307988,21.0999112 L56.0974509,23.2523358 C54.794432,24.6577645 52.8247523,25.4051342 50.8550725,25.4051342 C46.7338964,25.4051342 44.0365715,22.3558659 44.0365715,17.8114846 Z M65.5516108,25.046322 L62.9455729,20.2328876 L60.3092323,25.046322 L56.3698728,25.046322 L60.6425627,17.6918307 L56.5819922,10.6067663 L60.5516544,10.6067663 L62.9455729,15.1511475 L65.3091886,10.6067663 L69.2788509,10.6067663 L65.2182803,17.6918307 L69.521273,25.046322 L65.5516108,25.046322 Z M70.4602421,25.046322 L70.4602421,10.6067663 L74.096574,10.6067663 L74.096574,15.9882016 L78.6722916,15.9882016 L78.6722916,10.6067663 L82.3389262,10.6067663 L82.3389262,25.046322 L78.6722916,25.046322 L78.6722916,19.1271542 L74.096574,19.1271542 L74.096574,25.046322 L70.4602421,25.046322 Z M83.7327019,17.8116715 C83.7327019,13.7758752 86.0360908,10.2479167 90.3387048,10.2479167 C94.7026818,10.2479167 96.9753892,13.7758752 96.9753892,17.8116715 C96.9753892,21.8773625 94.7026818,25.4049473 90.3387048,25.4049473 C86.0360908,25.4049473 83.7327019,21.8773625 83.7327019,17.8116715 Z M109.39922,25.046322 L109.39922,8.63371034 L102.702309,8.63371034 L102.702309,25.046322 L98.6417383,25.046322 L98.6417383,5.10612549 L113.490093,5.10612549 L113.490093,25.046322 L109.39922,25.046322 Z M119.004666,23.2226279 L119.004666,30.5472243 L115.367956,30.5472243 L115.367956,10.6070278 L119.004666,10.6070278 L119.004666,12.4306098 C119.913371,10.9952864 121.277374,10.2479167 122.701604,10.2479167 C126.004605,10.2479167 128.125799,13.0879215 128.125799,17.8116715 C128.125799,22.505153 126.004605,25.4049473 122.701604,25.4049473 C121.307677,25.4049473 119.913371,24.7173672 119.004666,23.2226279 Z M129.276925,17.8116715 C129.276925,13.7758752 131.579935,10.2479167 135.882928,10.2479167 C140.246526,10.2479167 142.519612,13.7758752 142.519612,17.8116715 C142.519612,21.8773625 140.246526,25.4049473 135.882928,25.4049473 C131.579935,25.4049473 129.276925,21.8773625 129.276925,17.8116715 Z M153.125164,13.7460178 L147.307033,13.7460178 L147.307033,25.0462472 L143.670701,25.0462472 L143.670701,10.6070652 L153.125164,10.6070652 L153.125164,13.7460178 Z M157.973227,23.2226279 L157.973227,30.5472243 L154.336896,30.5472243 L154.336896,10.6070278 L157.973227,10.6070278 L157.973227,12.4306098 C158.88231,10.9952864 160.246314,10.2479167 161.670544,10.2479167 C164.973166,10.2479167 167.094739,13.0879215 167.094739,17.8116715 C167.094739,22.505153 164.973166,25.4049473 161.670544,25.4049473 C160.276238,25.4049473 158.88231,24.7173672 157.973227,23.2226279 Z M168.063897,17.8114846 C168.063897,13.6262145 170.548345,10.2477299 174.609294,10.2477299 C178.639562,10.2477299 180.912648,13.4767405 180.912648,17.9609586 L180.912648,18.977755 L171.730531,18.977755 C171.882045,20.9504372 173.063853,22.5049662 175.275955,22.5049662 C176.306249,22.5049662 177.639571,21.9971285 178.457745,21.0999112 L180.124776,23.2523358 C178.821379,24.6577645 176.851699,25.4051342 174.882019,25.4051342 C170.760843,25.4051342 168.063897,22.3558659 168.063897,17.8114846 Z M181.821087,17.8116715 C181.821087,13.4167641 184.487731,10.2479167 188.517998,10.2479167 C190.821387,10.2479167 192.336526,11.1746551 193.184624,12.1914515 L191.366458,14.6727189 C190.699797,13.8651859 189.911926,13.4167641 188.911934,13.4167641 C186.821043,13.4167641 185.57863,15.3005094 185.57863,17.8116715 C185.57863,20.3228336 186.821043,22.2364736 188.911934,22.2364736 C189.911926,22.2364736 190.699797,21.7876781 191.366458,20.9801452 L193.184624,23.4617862 C192.336526,24.4785826 190.821387,25.4049473 188.517998,25.4049473 C184.487731,25.4049473 181.821087,22.2364736 181.821087,17.8116715 Z M193.214927,17.8116715 C193.214927,13.4167641 195.88157,10.2479167 199.911838,10.2479167 C202.215227,10.2479167 203.730365,11.1746551 204.578464,12.1914515 L202.760298,14.6727189 C202.093637,13.8651859 201.305765,13.4167641 200.305774,13.4167641 C198.214883,13.4167641 196.97247,15.3005094 196.97247,17.8116715 C196.97247,20.3228336 198.214883,22.2364736 200.305774,22.2364736 C201.305765,22.2364736 202.093637,21.7876781 202.760298,20.9801452 L204.578464,23.4617862 C203.730365,24.4785826 202.215227,25.4049473 199.911838,25.4049473 C195.88157,25.4049473 193.214927,22.2364736 193.214927,17.8116715 Z M13.0529407,8.99943569 C13.3714985,9.57229454 13.3658168,10.6481332 13.0351378,11.2079131 L5.06020754,25.0454625 L0.228052794,25.0454625 L7.43405043,12.7239524 L11.3366678,6.05890972 L13.0529407,8.99943569 Z M12.5711268,25.0454251 L17.655552,16.3124105 L22.7536135,25.0454251 L12.5711268,25.0454251 Z M19.9100778,10.0932859 L19.8680327,9.36198471 L21.8369549,12.7315009 L29.0293163,25.0455372 L24.2395854,25.0455372 C22.8274765,22.6289174 18.5324383,15.2725577 18.3979698,15.0427416 C18.4419088,14.9665099 18.4847114,14.8906518 18.4847114,14.8906518 C19.4714452,13.007654 19.9081838,11.5312252 19.9100778,10.0932859 Z M17.4533568,14.136668 C17.4533568,14.136668 17.375706,14.2782945 17.2601767,14.4823264 C17.1423747,14.6886005 11.1265182,25.0452757 11.1265182,25.0452757 L6.42618045,25.0452757 L9.65304619,19.498298 L13.9950537,12.0440329 L14.0730833,11.9128695 C14.6518661,10.9181205 14.6545176,9.28586511 14.0844469,8.28887397 L13.5450576,7.34046186 L12.0848431,4.78072074 L13.9272513,1.6350418 L13.9253573,1.63616285 L14.6408814,0.412718703 L17.6768397,5.7650066 C18.3435006,7.05048243 18.6859218,8.56427969 18.6851642,10.0930244 C18.6847854,11.5085425 18.1086541,12.9135975 17.4533568,14.136668 Z M138.761691,17.8116715 C138.761691,15.4499833 137.883289,13.4167641 135.882928,13.4167641 C133.943551,13.4167641 133.064771,15.4499833 133.064771,17.8116715 C133.064771,20.2028807 133.943551,22.2364736 135.882928,22.2364736 C137.883289,22.2364736 138.761691,20.2028807 138.761691,17.8116715 Z M163.337196,17.8116715 C163.337196,15.3005094 162.367128,13.4167641 160.488357,13.4167641 C159.518668,13.4167641 158.458072,14.134239 157.973227,15.0912459 L157.973227,20.5320971 C158.458072,21.4592091 159.518668,22.2364736 160.488357,22.2364736 C162.367128,22.2364736 163.337196,20.3527283 163.337196,17.8116715 Z M124.368256,17.8116715 C124.368256,15.3005094 123.398567,13.4167641 121.519417,13.4167641 C120.550107,13.4167641 119.489132,14.134239 119.004666,15.0912459 L119.004666,20.5320971 C119.489132,21.4592091 120.550107,22.2364736 121.519417,22.2364736 C123.398567,22.2364736 124.368256,20.3527283 124.368256,17.8116715 Z M50.5217421,13.1478979 C48.4914568,13.1478979 47.7641904,15.0312695 47.7035849,16.5260088 L53.370202,16.5260088 C53.3095965,15.0312695 52.6429357,13.1478979 50.5217421,13.1478979 Z M93.2178463,17.8116715 C93.2178463,15.4499833 92.3390661,13.4167641 90.3387048,13.4167641 C88.3993278,13.4167641 87.5205476,15.4499833 87.5205476,17.8116715 C87.5205476,20.2028807 88.3993278,22.2364736 90.3387048,22.2364736 C92.3390661,22.2364736 93.2178463,20.2028807 93.2178463,17.8116715 Z M174.548689,13.1478979 C172.518403,13.1478979 171.791137,15.0312695 171.730531,16.5260088 L177.397527,16.5260088 C177.336543,15.0312695 176.670261,13.1478979 174.548689,13.1478979 Z" id="logo-red"></path>
            </g>
        </g>
    </g>
</svg>